# xmcd
#
# Track frame offsets: 
#        150
#        18721
#        35742
#        50337
#        66309
#        83057
#        101150
#        116139
#        132983
#        148299
#        165685
#
# Disc length: 2436 seconds
#
# Revision: 0
# Processed by: cddbd v1.5.2PL0 Copyright (c) Steve Scherf et al.
# Submitted via: ExactAudioCopy v1.0b3
#
DISCID=a609820b
DTITLE=Love and The Outcome - Love and The Outcome
DYEAR=2013
DGENRE=Country
TTITLE0=When We Love
TTITLE1=He Is With Us
TTITLE2=No Mistaking (It's You)
TTITLE3=City Of God
TTITLE4=Ask
TTITLE5=The Story You're Building In Me
TTITLE6=Closer To You
TTITLE7=Bring Us Back
TTITLE8=King Of My Heart
TTITLE9=Heart Like You
TTITLE10=What A Promise
EXTD=
EXTT0=
EXTT1=
EXTT2=
EXTT3=
EXTT4=
EXTT5=
EXTT6=
EXTT7=
EXTT8=
EXTT9=
EXTT10=
PLAYORDER=
